<?xml version="1.0" encoding="UTF-8"?>
<svg width="375px" height="130px" viewBox="0 0 375 130" version="1.1" xmlns="http://www.w3.org/2000/svg" xmlns:xlink="http://www.w3.org/1999/xlink">
    <!-- Generator: Sketch 50 (54983) - http://www.bohemiancoding.com/sketch -->
    <title>akra_logo_flat</title>
    <desc>Created with Sketch.</desc>
    <defs></defs>
    <g id="Page-1" stroke="none" stroke-width="1" fill="none" fill-rule="evenodd">
        <g id="akra_logo_flat" transform="translate(0.000000, 2.000000)">
            <path d="M15,12 L15,0.8 L359.5,0.8 L359.5,74.7 M359.4,113.4 L359.4,124.6 L15,124.6 L15,50.5" id="Shape" stroke="#323232" stroke-width="5.4451"></path>
            <path d="M46,87.5 L53.6,87.5 L59.7,77.1 L99.2,77.1 L105.3,87.5 L112.9,87.5 L83.6,38.2 L75.3,38.2 L46,87.5 Z M96,71.6 L62.9,71.6 L79.4,43.6 L96,71.6 Z" id="Shape" fill="#323232"></path>
            <polygon id="Shape" fill="#323232" fill-rule="nonzero" points="124.5 87.5 131.2 87.5 131.2 64.5 139 64.5 172.8 87.5 184.5 87.5 184.7 87.3 146.1 61.9 181.5 38.3 181.3 38.2 170.4 38.2 139.5 59.1 131.2 59.1 131.2 38.2 124.5 38.2"></polygon>
            <path d="M195.3,87.5 L202,87.5 L202,68 L234.5,68 C240.6,68 244.3,69 244.3,76.6 L244.3,87.4 L250.6,87.4 L250.6,74.8 C250.6,70.3 249,66.8 242.2,65.5 L242.2,65.4 C247.3,64.9 251.3,63 251.3,56.1 L251.3,52.1 C251.3,42.8 249.1,38.1 234.8,38.1 L195.4,38.1 L195.4,87.5 L195.3,87.5 Z M202,62.6 L202,43.7 L232.4,43.7 C242.2,43.7 244.6,45.5 244.6,51 L244.6,55.5 C244.6,60.7 241.5,62.6 234,62.6 L202,62.6 Z" id="Shape" fill="#323232"></path>
            <path d="M261.5,87.5 L269.1,87.5 L275.2,77.1 L314.7,77.1 L320.8,87.5 L328.4,87.5 L299,38.2 L290.7,38.2 L261.5,87.5 Z M311.4,71.6 L278.3,71.6 L294.8,43.6 L311.4,71.6 Z" id="Shape" fill="#323232"></path>
            <g id="SVGID_1_-link" transform="translate(344.000000, 79.000000)" fill="#CC202A" fill-rule="nonzero">
                <path d="M0.4,15 C0.4,6.7 7.1,0 15.4,0 C23.7,0 30.4,6.7 30.4,15 C30.4,23.3 23.7,30 15.4,30 C7.1,30 0.4,23.2 0.4,15 Z" id="SVGID_1_"></path>
            </g>
            <g id="SVGID_3_-link" transform="translate(0.000000, 16.000000)" fill="#CC202A" fill-rule="nonzero">
                <path d="M0,15.3 C0,7 6.7,0.3 15,0.3 C23.3,0.3 30,7 30,15.3 C30,23.6 23.3,30.3 15,30.3 C6.7,30.3 0,23.6 0,15.3 Z" id="SVGID_3_"></path>
            </g>
        </g>
    </g>
</svg>